<?xml version="1.0" encoding="UTF-8" standalone="no"?>
<svg width="240px" height="498px" viewBox="0 0 240 498" version="1.1" xmlns="http://www.w3.org/2000/svg" xmlns:xlink="http://www.w3.org/1999/xlink" xmlns:sketch="http://www.bohemiancoding.com/sketch/ns">
    <!-- Generator: Sketch 3.4 (15575) - http://www.bohemiancoding.com/sketch -->
    <title>small-phone</title>
    <desc>Created with Sketch.</desc>
    <defs></defs>
    <g id="Page-1" stroke="none" stroke-width="1" fill="none" fill-rule="evenodd" sketch:type="MSPage">
        <g id="Desktop" sketch:type="MSArtboardGroup" transform="translate(-87.000000, -217.000000)">
            <g id="small-phone" sketch:type="MSLayerGroup" transform="translate(87.000000, 217.000000)">
                <path d="M240,461.522293 C240,481.585032 223.571429,498 203.492063,498 L39.047619,498 C18.968254,498 2.53968254,481.585032 2.53968254,461.522293 L2.53968254,39.0152866 C2.53968254,18.9525478 18.968254,2.53757962 39.047619,2.53757962 L203.492063,2.53757962 C223.571429,2.53757962 240,18.9525478 240,39.0152866 L240,461.522293 L240,461.522293 Z" id="Shape" fill="#F2F2F2" sketch:type="MSShapeGroup"></path>
                <rect id="Rectangle-path" fill="#FFFFFF" sketch:type="MSShapeGroup" x="19.6825397" y="70.1006369" width="203.174603" height="360.336306"></rect>
                <path d="M121.269841,482.933121 C109.453968,482.933121 99.8412698,473.328382 99.8412698,461.522293 C99.8412698,449.716204 109.453968,440.111465 121.269841,440.111465 C133.085714,440.111465 142.698413,449.716204 142.698413,461.522293 C142.698413,473.328382 133.085714,482.933121 121.269841,482.933121 L121.269841,482.933121 Z M121.269841,442.966242 C111.029524,442.966242 102.698413,451.290455 102.698413,461.522293 C102.698413,471.754131 111.029524,480.078344 121.269841,480.078344 C131.510159,480.078344 139.84127,471.754131 139.84127,461.522293 C139.84127,451.290455 131.510159,442.966242 121.269841,442.966242 L121.269841,442.966242 Z" id="Shape" fill="#CCCCCC" sketch:type="MSShapeGroup"></path>
                <ellipse id="Oval" fill="#CCCCCC" sketch:type="MSShapeGroup" cx="121.269841" cy="25.2777822" rx="4.44444444" ry="4.44076433"></ellipse>
                <path d="M140.952381,47.2624204 L101.587302,47.2624204 C100.009206,47.2624204 98.7301587,45.9844318 98.7301587,44.4076433 C98.7301587,42.8308548 100.009206,41.5528662 101.587302,41.5528662 L140.952381,41.5528662 C142.530476,41.5528662 143.809524,42.8308548 143.809524,44.4076433 C143.809524,45.9844318 142.530476,47.2624204 140.952381,47.2624204 L140.952381,47.2624204 Z" id="Shape" fill="#CCCCCC" sketch:type="MSShapeGroup"></path>
                <rect id="Rectangle-path" fill="#CCCCCC" sketch:type="MSShapeGroup" x="161.904762" y="0" width="38.7301587" height="2.53757962"></rect>
                <rect id="Rectangle-path" fill="#CCCCCC" sketch:type="MSShapeGroup" x="0" y="115.459873" width="2.53968254" height="17.4458599"></rect>
                <rect id="Rectangle-path" fill="#CCCCCC" sketch:type="MSShapeGroup" x="0" y="68.7262204" width="2.53968254" height="24.1070064"></rect>
                <rect id="Rectangle-path" fill="#CCCCCC" sketch:type="MSShapeGroup" x="0" y="155.109554" width="2.53968254" height="17.4458599"></rect>
            </g>
        </g>
    </g>
</svg>